# xmcd
#
# Track frame offsets:
#	150
#	20915
#	33675
#	47617
#	65827
#	81510
#	94342
#	108842
#	126165
#	142245
#
# Disc length: 2162 seconds
#
# Revision: 1
# Processed by: cddbd v1.5.2PL0 Copyright (c) Steve Scherf et al.
# Submitted via: audiograbber 1.83.01
#
DISCID=9908700a
DTITLE=Cynthia Gibson and Andrew MacDonald - The Stuff Of Life Cynthia Gibson
DYEAR=1996
DGENRE=Country
TTITLE0=Not Today
TTITLE1=I Ought To Know
TTITLE2=It´s Easier
TTITLE3=Hush-a-bye
TTITLE4=Gyn And Ii
TTITLE5=Mama´s Goin´ Out
TTITLE6=Oround The Bend
TTITLE7=Two Feet And A Heartbeat
TTITLE8=I Felt So Sure
TTITLE9=If I Had An Anchor
EXTD=
EXTT0=
EXTT1=
EXTT2=
EXTT3=
EXTT4=
EXTT5=
EXTT6=
EXTT7=
EXTT8=
EXTT9=
PLAYORDER=
